<mxfile host="app.diagrams.net" modified="2024-01-29T22:24:16.375Z" agent="Mozilla/5.0 (X11; Ubuntu; Linux x86_64; rv:121.0) Gecko/20100101 Firefox/121.0" version="23.0.2" etag="vo-mNhMC2PCGQ-kdH7I0" type="github">
  <diagram name="Page-1" id="m7iA8UQ2fK8T_k6TY3Px">
    <mxGraphModel>
      <root>
        <mxCell id="0" />
        <mxCell id="1" parent="0" />
      </root>
    </mxGraphModel>
  </diagram>
</mxfile>
